<?xml version="1.0" encoding="UTF-8" standalone="no"?>
<!-- Created with Inkscape (http://www.inkscape.org/) -->

<svg
   width="512"
   height="512"
   viewBox="0 0 512 512"
   version="1.1"
   id="svg5"
   inkscape:version="1.1.2 (b8e25be833, 2022-02-05)"
   sodipodi:docname="logo.svg"
   xmlns:inkscape="http://www.inkscape.org/namespaces/inkscape"
   xmlns:sodipodi="http://sodipodi.sourceforge.net/DTD/sodipodi-0.dtd"
   xmlns="http://www.w3.org/2000/svg"
   xmlns:svg="http://www.w3.org/2000/svg">
  <sodipodi:namedview
     id="namedview7"
     pagecolor="#505050"
     bordercolor="#eeeeee"
     borderopacity="1"
     inkscape:pageshadow="0"
     inkscape:pageopacity="0"
     inkscape:pagecheckerboard="0"
     inkscape:document-units="px"
     showgrid="false"
     showguides="false"
     inkscape:zoom="0.77929688"
     inkscape:cx="458.74687"
     inkscape:cy="209.80451"
     inkscape:window-width="1920"
     inkscape:window-height="991"
     inkscape:window-x="-9"
     inkscape:window-y="-9"
     inkscape:window-maximized="1"
     inkscape:current-layer="layer1" />
  <defs
     id="defs2" />
  <g
     inkscape:label="Calque 1"
     inkscape:groupmode="layer"
     id="layer1">
    <g
       id="g3054"
       transform="translate(16.48177,10.330149)"
       style="fill:#ffa715;fill-opacity:1">
      <path
         style="fill:#ffa715;fill-opacity:1"
         d="m 228.4836,463.02768 c -5.33668,-1.78331 -12.20314,-9.27786 -14.8851,-16.24666 -3.60126,-9.35754 -15.25796,-38.55625 -17.16644,-43 -0.47242,-1.1 -2.01946,-4.83547 -3.43787,-8.30104 -1.4184,-3.46557 -4.09046,-9.54057 -5.9379,-13.5 -1.84745,-3.95943 -4.58127,-10.12396 -6.07516,-13.69896 -6.21618,-14.87581 -30.84032,-64.4526 -44.45346,-89.5 -1.79354,-3.3 -5.29831,-9.825 -7.78838,-14.5 -2.49007,-4.675 -6.35601,-11.65 -8.59098,-15.5 -3.64672,-6.28191 -9.5385,-17.89442 -13.95252,-27.5 -12.01879,-26.15467 -13.58864,-68.36079 -3.65462,-98.25577 3.40428,-10.24467 12.84638,-28.663524 19.34892,-37.744234 7.38399,-10.311641 24.05362,-27.185815 32.73517,-33.136854 26.18163,-17.947005 51.28703,-25.885978 81.99095,-25.927646 17.32879,-0.02352 28.77176,1.774075 45.247,7.107908 33.3099,10.784031 62.87631,36.22057 79.76643,68.624576 3.10531,5.95761 6.63157,13.75702 7.83613,17.33202 1.20455,3.575 2.56385,7.22136 3.02065,8.10303 0.45681,0.88166 1.15438,3.80666 1.55016,6.5 0.39579,2.69333 1.11628,5.95981 1.6011,7.25884 2.65808,7.12213 2.96706,39.83885 0.47492,50.28851 -0.83288,3.49229 -1.80169,7.92462 -2.15292,9.84962 -2.00938,11.01289 -15.20523,39.90899 -26.94327,59 -1.18358,1.925 -3.54991,6.2 -5.25852,9.5 -1.70861,3.3 -5.18185,9.825 -7.71832,14.5 -9.85484,18.16358 -39.751,79.26299 -43.30336,88.5 -0.84608,2.2 -3.237,7.6 -5.31317,12 -2.07616,4.4 -4.75178,10.475 -5.94582,13.5 -1.19404,3.025 -2.98681,7.525 -3.98394,10 -0.99713,2.475 -4.60792,11.475 -8.02397,20 -10.73465,26.78908 -12.39802,29.63921 -19.37521,33.19871 -4.80702,2.45236 -14.5925,3.22477 -19.6105,1.54795 z m 30.5,-199.16372 c 3.3,-0.95651 7.575,-2.20333 9.5,-2.7707 1.925,-0.56736 6.78661,-2.61141 10.80358,-4.54233 21.22633,-10.20329 40.95853,-31.97919 48.24529,-53.24215 5.11476,-14.92502 6.13337,-21.38582 5.68016,-36.02776 -0.43408,-14.0239 -1.01484,-17.45854 -5.07268,-30 -7.4286,-22.95939 -25.82074,-43.384624 -49.15635,-54.590153 -17.91627,-8.603218 -34.42182,-11.560084 -52.68056,-9.437393 -36.87757,4.287246 -66.43137,27.462586 -81.01198,63.527546 -3.25288,8.04596 -5.07277,19.71184 -5.07003,32.5 0.005,24.16189 5.51318,40.22259 20.79427,60.63364 4.66039,6.22491 18.95174,19.36636 21.06095,19.36636 0.41243,0 1.4603,0.61732 2.32861,1.37181 6.5448,5.68697 23.01444,12.01306 39.07874,15.0104 5.90827,1.10238 29.63871,-0.10036 35.5,-1.79927 z m -58.27749,-23.13964 c -3.50163,-2.45264 -2.75689,-6.02912 2.99315,-14.37397 2.86862,-4.16313 5.56774,-8.01933 5.99807,-8.56933 5.87557,-7.50967 17.78627,-25.40376 17.78627,-26.72128 0,-1.71872 -8.73905,-16.21087 -14.53566,-24.1048 -2.93413,-3.99575 -3.34313,-4.19096 -12.22795,-5.83626 -14.33807,-2.65514 -19.80365,-8.21731 -25.66896,-26.12261 -1.97554,-6.03081 -1.98066,-9.79029 -0.0197,-14.48352 7.22752,-17.2979 27.64942,-13.94941 41.59885,6.8208 4.26369,6.34847 5.31319,12.51792 3.32754,19.56083 -2.91165,10.32737 -2.9043,10.40782 1.54237,16.88684 2.26485,3.3 5.77517,8.59119 7.80071,11.75819 2.04188,3.19256 4.31073,5.64315 5.09211,5.5 0.77511,-0.142 4.56019,-4.87694 8.41127,-10.52207 l 7.00197,-10.26388 -2.11355,-2.24977 c -2.64902,-2.81975 -5.209,-8.84305 -5.209,-12.25609 0,-3.39948 0.79721,-4.87582 9.85648,-18.25314 4.20394,-6.20772 8.09239,-12.05772 8.64101,-13 0.54862,-0.94228 2.06738,-3.21948 3.37503,-5.06044 l 2.37753,-3.34719 2.01191,2.01191 2.01191,2.01191 -4.63693,6.63319 c -2.55032,3.64826 -4.63694,6.81508 -4.63694,7.03738 0,0.2223 -2.05838,3.34872 -4.57419,6.94761 -4.89753,7.00599 -5.37742,10.05239 -1.5835,10.05239 1.85166,0 4.06903,-2.60152 11.08039,-13 4.82101,-7.15 9.51199,-13.14576 10.42441,-13.32391 4.17007,-0.8142 2.60832,3.27817 -6.21919,16.29666 -8.96445,13.22043 -9.86238,15.64552 -6.3006,17.01641 1.97557,0.76037 2.83247,-0.25031 11.8606,-13.98916 7.99897,-12.17271 9.43777,-13.77274 11.6288,-12.93196 0.92581,0.35527 1.68328,1.08331 1.68328,1.61787 0,0.53456 -2.925,5.2261 -6.5,10.42565 -3.575,5.19956 -6.5,9.69407 -6.5,9.98781 0,0.29374 -1.17491,2.07446 -2.6109,3.95715 -2.71954,3.56549 -2.63934,6.02649 0.23229,7.12844 1.77408,0.68077 3.4053,-1.09412 8.87861,-9.6606 11.21975,-17.56046 13.38327,-19.74185 15.7923,-15.92274 0.79622,1.26226 -1.35574,5.09922 -10.15633,18.10887 -6.14164,9.079 -12.06713,17.32222 -13.16776,18.31828 -2.1865,1.97875 -10.02309,2.52206 -15.58968,1.08082 -3.06008,-0.79228 -3.22931,-0.64398 -8.60546,7.54112 -3.0162,4.59211 -6.65222,10.55473 -8.08006,13.25027 l -2.59606,4.90098 5.99509,8.59902 c 3.2973,4.72946 9.16422,13.09902 13.03762,18.59902 12.33302,17.51221 12.49292,17.91043 8.63487,21.50475 -4.94961,4.61126 -7.97923,1.49634 -25.01069,-25.7149 -0.9604,-1.53442 -3.01476,-4.81434 -4.56525,-7.28872 -3.39361,-5.41573 -5.40393,-6.0451 -7.33451,-2.2962 -2.26922,4.4065 -17.50007,28.30617 -22.33361,35.04507 -1.88182,2.62361 -5.15197,2.89683 -8.29796,0.6933 z m 5.24884,-2.79869 c 2.44602,-1.78858 1.3189,-4.64461 -1.83298,-4.64461 -2.78489,0 -4.21112,2.60495 -2.53318,4.62675 1.42223,1.71368 2.04351,1.71622 4.36616,0.0179 z m 60.42346,-0.0179 c 1.67022,-2.01245 0.25662,-4.62671 -2.5018,-4.62671 -3.86599,0 -3.19274,5.42699 0.73455,5.92105 0.34515,0.0434 1.14041,-0.53901 1.76725,-1.2943 z"
         id="path3058" />
      <path
         style="fill:#ffa715;fill-opacity:1"
         d="m 226.4836,461.32266 c -5.64803,-3.01762 -9.72329,-8.06198 -12.52128,-15.49884 -1.43963,-3.82646 -3.46476,-8.81701 -4.50027,-11.09011 -1.03552,-2.2731 -3.19013,-7.69236 -4.78802,-12.0428 -1.5979,-4.35044 -3.91428,-10.15989 -5.14751,-12.90989 -2.97472,-6.63336 -3.34595,-7.51624 -7.56869,-18 -1.99381,-4.95 -4.39741,-10.35 -5.34135,-12 -0.94394,-1.65 -2.55239,-5.25 -3.57434,-8 -2.64709,-7.12317 -27.21683,-58.20601 -31.02309,-64.5 -1.16414,-1.925 -2.98363,-5.525 -4.04332,-8 -1.05969,-2.475 -3.12284,-6.525 -4.58478,-9 -1.46194,-2.475 -4.901,-8.775 -7.64236,-14 -2.74135,-5.225 -7.75122,-14.45 -11.13303,-20.5 -22.81752,-40.82015 -27.63196,-56.2399 -27.63196,-88.5 0,-26.34673 3.13699,-40.4172 13.7947,-61.87384 22.37347,-45.043418 63.25657,-73.328476 113.14096,-78.27681 25.13861,-2.49365 52.76816,2.591018 75.06434,13.814095 18.00715,9.064137 33.78549,21.51772 45.40392,35.836551 13.38679,16.49822 19.34524,27.617364 28.13334,52.500004 3.56394,10.09096 5.62039,34.71568 4.22351,50.57394 -1.32592,15.05264 -3.15554,23.45058 -7.71811,35.42606 -3.54211,9.29707 -15.13389,33.04374 -18.54945,38 -0.94757,1.375 -3.64323,6.1 -5.99036,10.5 -2.34712,4.4 -5.39351,10.025 -6.76975,12.5 -2.43305,4.37555 -15.10925,28.82059 -23.85373,46 -2.37962,4.675 -6.97848,14.125 -10.21968,21 -3.2412,6.875 -7.49058,15.875 -9.44307,20 -1.95248,4.125 -4.44344,9.75 -5.53547,12.5 -1.09203,2.75 -3.6615,8.6 -5.70993,13 -2.04844,4.4 -4.81921,10.925 -6.15727,14.5 -1.33806,3.575 -4.59389,11.675 -7.23518,18 -2.64128,6.325 -6.46257,15.81292 -8.49175,21.08427 -4.32361,11.23175 -8.21662,16.39938 -14.32781,19.01894 -5.84101,2.50375 -15.51274,2.47436 -20.25921,-0.0616 z m 24.91243,-195.56609 c 4.62683,-0.81818 11.60183,-2.436 15.5,-3.59515 16.01684,-4.76272 33.74547,-16.90411 44.88962,-30.7425 10.17032,-12.62912 13.27872,-18.71096 19.74762,-38.6379 2.32966,-7.17636 2.77445,-35.42093 0.68501,-43.5 -0.64731,-2.50293 -2.93645,-10.25096 -4.32257,-14.63061 -4.08608,-12.91049 -17.48872,-30.78272 -31.35004,-41.804834 -7.40719,-5.889981 -15.14619,-10.56456 -17.49014,-10.56456 -0.86456,0 -1.57193,-0.397516 -1.57193,-0.883369 0,-0.485852 -0.7875,-1.127133 -1.75,-1.425067 -0.9625,-0.297935 -4.9,-1.661934 -8.75,-3.031109 -18.13536,-6.449476 -44.47915,-6.188815 -62.5,0.61841 -16.49779,6.231903 -32.43079,17.169675 -41.55802,28.528979 -2.51551,3.13069 -5.65427,7.04216 -6.97502,8.69216 -2.88053,3.59863 -10.04315,17.90983 -11.03539,22.04918 -0.38904,1.62295 -1.0796,3.42801 -1.53457,4.01125 -1.49053,1.91072 -3.8889,19.74595 -3.89161,28.93957 -0.003,9.96354 1.93173,22.62891 4.69238,30.71874 5.01796,14.70468 17.17537,32.76106 28.17415,41.84471 2.95456,2.4401 5.87956,4.89598 6.5,5.45751 1.59946,1.44757 10.22339,6.64573 16.18537,9.75589 4.98918,2.60267 18.19796,6.61456 27.94271,8.48701 7.66495,1.47281 19.10999,1.35667 28.41243,-0.28831 z m -50.83985,-26.11041 c -1.13992,-1.44917 -2.07258,-3.10374 -2.07258,-3.67681 0,-0.88363 6.49222,-11.18055 8,-12.68833 0.275,-0.275 0.95,-1.22006 1.5,-2.10012 2.18325,-3.49347 9.02887,-13.42954 9.57656,-13.89988 1.44879,-1.2442 10.92344,-15.42468 10.92344,-16.34887 0,-1.10209 -9.62907,-16.24846 -11.74364,-18.47256 -0.691,-0.72678 -1.2586,-1.85178 -1.26133,-2.5 -0.003,-0.64821 -1.05478,-2.49058 -2.33789,-4.09414 -2.48703,-3.10818 -8.83028,-5.54352 -14.50601,-5.56925 -11.21302,-0.0508 -21.1035,-12.89746 -24.84767,-32.27434 -0.29323,-1.51754 -0.0935,-3.31754 0.44381,-4 0.53732,-0.68246 1.28622,-2.5327 1.66421,-4.11164 2.21658,-9.25905 14.56042,-12.51749 25.58852,-6.75468 5.73415,2.99641 13.59017,11.46813 16.80818,18.12548 1.99626,4.12982 2.25733,17.33449 0.37984,19.21198 -0.65341,0.65341 -1.18802,2.8891 -1.18802,4.96821 0,2.95106 1.18724,5.48437 5.41292,11.55 2.9771,4.27339 6.59523,9.48877 8.04027,11.58972 1.44504,2.10095 3.13447,3.65087 3.75429,3.44426 0.61981,-0.2066 4.44862,-5.25305 8.50846,-11.21432 l 7.38152,-10.83869 -2.34646,-2.60558 c -6.98281,-7.75392 -6.9293,-12.99951 0.24082,-23.60558 2.97457,-4.4 7.78002,-11.6 10.67877,-16 2.89875,-4.4 5.73707,-8.54709 6.30737,-9.21576 1.19096,-1.39636 4.03655,-0.63178 3.99251,1.07275 -0.0254,0.9814 -8.28046,14.23526 -10.67745,17.14301 -0.45339,0.55 -2.33618,3.37726 -4.18398,6.28281 -3.24462,5.10194 -3.29869,5.35015 -1.57935,7.25 0.97916,1.08195 2.36446,1.96719 3.07846,1.96719 0.71399,0 4.20109,-4.3875 7.74911,-9.75 11.05807,-16.71325 12.57285,-18.55289 14.17901,-17.2199 1.20042,0.99626 0.9998,1.81445 -1.30931,5.33972 -1.49983,2.28974 -3.17696,4.86481 -3.72696,5.72238 -0.55,0.85756 -3.3625,5.07037 -6.25,9.3618 -5.54851,8.24627 -5.96972,9.42628 -4.05,11.346 2.37994,2.37994 4.63665,1.15239 8.3647,-4.55 12.45284,-19.04777 14.70887,-22.08225 16.03821,-21.57214 2.35403,0.90333 1.60404,3.02488 -3.69428,10.45018 -9.48299,13.28992 -13.12813,19.90255 -11.83195,21.46435 2.9831,3.59442 5.21943,1.68037 14.78972,-12.65839 9.00957,-13.49865 9.43803,-13.96847 11.24647,-12.33185 1.08334,0.9804 1.54262,2.16683 1.08379,2.79964 -0.43795,0.60402 -4.82386,7.15218 -9.74647,14.55148 -4.9226,7.3993 -10.62064,15.21712 -12.6623,17.37293 -4.03026,4.25561 -3.14829,4.13348 -17.72623,2.45461 -2.05662,-0.23685 -3.18407,0.89331 -7.20188,7.21919 -6.84518,10.77744 -10.85978,17.81065 -10.85978,19.02534 0,1.13983 0.10695,1.30146 11.27705,17.04175 20.16499,28.41538 20.46414,29.0923 14.46512,32.73229 -2.46828,1.49767 -2.78144,1.47506 -4.79386,-0.34616 -1.18419,-1.07167 -2.77151,-3.14443 -3.52738,-4.60612 -0.75587,-1.46169 -1.9556,-3.26275 -2.66607,-4.00236 -1.49221,-1.55341 -9.75486,-14.68963 -9.75486,-15.50859 0,-0.30159 -1.35,-2.25286 -3,-4.33615 -1.65,-2.08329 -3,-4.10359 -3,-4.48953 0,-1.49259 -4.20373,-6.51047 -5.45415,-6.51047 -0.72488,0 -2.07709,1.4625 -3.0049,3.25 -2.42962,4.68083 -4.31308,7.68649 -17.38915,27.75 -7.05259,10.82127 -9.34514,12.11225 -13.07922,7.36514 z m 6.42742,-3.86514 c 0,-2.49687 -0.401,-3 -2.39101,-3 -2.79602,0 -4.70758,2.49772 -3.77382,4.93105 0.44495,1.15952 1.53277,1.60175 3.40914,1.38592 2.32477,-0.2674 2.75569,-0.78609 2.75569,-3.31697 z m 60.19053,1.86408 c 0.8323,-2.16894 -0.90019,-4.78994 -3.41538,-5.16695 -2.28725,-0.34284 -3.63426,2.09607 -2.73044,4.94375 0.74176,2.33707 5.27152,2.50158 6.14582,0.2232 z"
         id="path3056" />
    </g>
    <path
       style="fill:#000000"
       id="path2746"
       d="" />
    <path
       style="fill:#000000"
       id="path2726"
       d="" />
  </g>
</svg>
